<svg preserveAspectRatio="xMidYMid meet" data-bbox="45.499 40.5 109.001 119.001" viewBox="45.499 40.5 109.001 119.001" height="200" width="200" xmlns="http://www.w3.org/2000/svg" data-type="color" role="presentation" aria-hidden="true">
    <g>
        <path d="M99.002 71.819a9.906 9.906 0 0 0-7.873 3.841 9.901 9.901 0 0 0-7.871-3.841c-5.485 0-9.866 4.359-9.974 9.923-.173 9.066 15.313 21.203 17.079 22.557a1.517 1.517 0 0 0 1.844.004c.479-.364 11.757-9.022 16.001-18.708.508-1.16.766-2.445.766-3.823.001-5.489-4.474-9.953-9.972-9.953z" fill="#FFFFFF" data-color="1"></path>
        <path d="M136.759 139.194V43.868a3.372 3.372 0 0 0-3.375-3.368h-84.51a3.372 3.372 0 0 0-3.375 3.368v95.326a3.372 3.372 0 0 0 3.375 3.368h84.51a3.372 3.372 0 0 0 3.375-3.368zm-6.749-3.368H52.25V47.235h77.76v88.591z" fill="#FFFFFF" data-color="2"></path>
        <path d="M58.732 121.219h64.794a2.023 2.023 0 0 0 2.025-2.021V54.54a2.023 2.023 0 0 0-2.025-2.021H58.732a2.023 2.023 0 0 0-2.025 2.021v64.659a2.024 2.024 0 0 0 2.025 2.02zm2.025-64.659h60.745v60.618H60.757V56.56z" fill="#FFFFFF" data-color="2"></path>
        <path d="M145.79 148.784v-98.18a2.023 2.023 0 0 0-2.025-2.021 2.023 2.023 0 0 0-2.025 2.021v96.159H55.624a2.023 2.023 0 0 0-2.025 2.021c0 1.116.907 2.021 2.025 2.021h88.141a2.023 2.023 0 0 0 2.025-2.021z" fill="#FFFFFF" data-color="2"></path>
        <path d="M152.475 57.279a2.023 2.023 0 0 0-2.025 2.021v96.159H64.206a2.023 2.023 0 0 0-2.025 2.021c0 1.116.907 2.021 2.025 2.021h88.269a2.023 2.023 0 0 0 2.025-2.021V59.3a2.023 2.023 0 0 0-2.025-2.021z" fill="#FFFFFF" data-color="2"></path>
    </g>
</svg>