<svg preserveAspectRatio="xMidYMid meet" data-bbox="43.5 57.999 113 84" viewBox="43.5 57.999 113 84" height="200" width="200" xmlns="http://www.w3.org/2000/svg" data-type="color" role="presentation" aria-hidden="true">
    <g>
        <path d="M148.886 71.605H51.114a3.175 3.175 0 0 0-3.184 3.167v10.862a3.175 3.175 0 0 0 3.184 3.167h97.771a3.175 3.175 0 0 0 3.184-3.167V74.771a3.174 3.174 0 0 0-3.183-3.166z" fill="#DD1CFF" data-color="1"></path>
        <path d="M153.128 66.05h-14.271v-6.038c0-1.112-.906-2.013-2.023-2.013s-2.023.901-2.023 2.013v6.038h-20.235v-6.038c0-1.112-.906-2.013-2.023-2.013s-2.024.901-2.024 2.013v6.038H90.292v-6.038a2.018 2.018 0 0 0-2.023-2.013 2.019 2.019 0 0 0-2.024 2.013v6.038H66.01v-6.038a2.018 2.018 0 0 0-2.024-2.013 2.019 2.019 0 0 0-2.024 2.013v6.038H46.873a3.364 3.364 0 0 0-3.373 3.354v69.241a3.363 3.363 0 0 0 3.373 3.354h106.255a3.363 3.363 0 0 0 3.372-3.354v-69.24a3.364 3.364 0 0 0-3.372-3.355zm-3.373 69.241h-99.51V72.759h11.718v3.802c0 1.112.906 2.013 2.024 2.013a2.019 2.019 0 0 0 2.024-2.013v-3.802h20.235v3.802c0 1.112.906 2.013 2.024 2.013a2.018 2.018 0 0 0 2.023-2.013v-3.802h20.235v3.802c0 1.112.906 2.013 2.024 2.013s2.023-.901 2.023-2.013v-3.802h20.235v3.802c0 1.112.906 2.013 2.023 2.013s2.023-.901 2.023-2.013v-3.802h10.899v62.532z" fill="#DD1CFF" data-color="2"></path>
        <path d="M60.197 106.253h78.708c1.117 0 2.023-.901 2.023-2.013s-.906-2.013-2.023-2.013H60.197c-1.117 0-2.024.901-2.024 2.013s.906 2.013 2.024 2.013z" fill="#DD1CFF" data-color="2"></path>
        <path d="M138.905 110.751H60.197c-1.117 0-2.024.901-2.024 2.013s.906 2.013 2.024 2.013h78.708c1.117 0 2.023-.901 2.023-2.013s-.906-2.013-2.023-2.013z" fill="#DD1CFF" data-color="2"></path>
        <path d="M138.905 119.274H60.197c-1.117 0-2.024.901-2.024 2.013s.906 2.013 2.024 2.013h78.708c1.117 0 2.023-.901 2.023-2.013s-.906-2.013-2.023-2.013z" fill="#DD1CFF" data-color="2"></path>
    </g>
</svg>