<svg preserveAspectRatio="xMidYMid meet" data-bbox="43.5 62 113 76" viewBox="43.5 62 113 76" height="200" width="200" xmlns="http://www.w3.org/2000/svg" data-type="color" role="presentation" aria-hidden="true">
    <g>
        <path d="M81.114 74.195H60.882a1.14 1.14 0 0 0-1.142 1.136v59.165a1.14 1.14 0 0 0 1.142 1.136h20.232a1.14 1.14 0 0 0 1.142-1.136V75.331a1.14 1.14 0 0 0-1.142-1.136z" fill="#DD1CFF" data-color="1"></path>
        <path d="M111.467 92.156H91.235a.944.944 0 0 0-.944.944v41.02c0 .521.423.944.944.944h20.232a.944.944 0 0 0 .944-.944V93.1a.945.945 0 0 0-.944-.944z" fill="#DD1CFF" data-color="1"></path>
        <path d="M141.819 103.632h-20.232a.79.79 0 0 0-.792.788v29.383a.79.79 0 0 0 .792.788h20.232a.79.79 0 0 0 .792-.788V104.42a.79.79 0 0 0-.792-.788z" fill="#DD1CFF" data-color="1"></path>
        <path d="M153.128 138H46.873a3.365 3.365 0 0 1-3.373-3.357V65.357c0-1.854 1.51-3.357 3.373-3.357s3.373 1.503 3.373 3.357v65.93h102.882c1.863 0 3.372 1.503 3.372 3.357S154.99 138 153.128 138z" fill="#DD1CFF" data-color="2"></path>
    </g>
</svg>