<svg preserveAspectRatio="xMidYMid meet" data-bbox="51 51 98 98" viewBox="51 51 98 98" height="200" width="200" xmlns="http://www.w3.org/2000/svg" data-type="color" role="presentation" aria-hidden="true">
    <g>
        <path d="M121.479 126.682a5.349 5.349 0 0 1-3.797-1.573L96.203 103.63a5.372 5.372 0 0 1-1.573-3.797V81.038a5.37 5.37 0 0 1 10.74 0v16.57l19.907 19.906a5.371 5.371 0 0 1-3.798 9.168z" fill="#FFFFFF" data-color="1"></path>
        <path d="M100 51c-27.018 0-49 21.982-49 49s21.982 49 49 49 49-21.982 49-49-21.982-49-49-49zm2.014 91.237v-8.12a2.014 2.014 0 1 0-4.028 0v8.12c-21.718-1.024-39.199-18.505-40.223-40.223h8.12a2.014 2.014 0 1 0 0-4.028h-8.121c1.023-21.718 18.506-39.199 40.224-40.223v8.12a2.014 2.014 0 1 0 4.028 0v-8.12c21.718 1.024 39.201 18.505 40.224 40.223h-8.121a2.014 2.014 0 1 0 0 4.028h8.12c-1.024 21.718-18.505 39.199-40.223 40.223z" fill="#FFFFFF" data-color="2"></path>
    </g>
</svg>