<svg preserveAspectRatio="xMidYMid meet" data-bbox="43.5 62 113 76.001" viewBox="43.5 62 113 76.001" height="200" width="200" xmlns="http://www.w3.org/2000/svg" data-type="color" role="presentation" aria-hidden="true">
    <g>
        <path d="M153.128 131.287H127.49c.007-.065.021-.129.021-.196V86.632c0-.061-.013-2.362-.019-2.421l-3.872 1.901v44.979c0 .067.013.131.021.196h-14.004c.007-.062.02-.122.02-.185V92.908l-3.89 1.91v36.283c0 .064.013.123.02.185H91.802V101.28l-.653.32a3.377 3.377 0 0 1-3.237-.146v29.833H72.599V95.213l-3.89 2.222v33.852H50.245v-22.324l.554-1.235.226-2.402.104-3.283-.883-.82V65.357c0-1.854-1.51-3.357-3.373-3.357S43.5 63.503 43.5 65.357v69.287a3.365 3.365 0 0 0 3.373 3.357h106.255c1.863 0 3.372-1.503 3.372-3.357s-1.51-3.357-3.372-3.357z" fill="#DD1CFF" data-color="1"></path>
        <path d="M146.656 72.912a3.373 3.373 0 0 0-2.5-1.727l-16.769-2.327a3.374 3.374 0 0 0-3.25 1.43 3.342 3.342 0 0 0-.158 3.534l3.029 5.383-33.93 16.66.119-13.345a3.352 3.352 0 0 0-1.669-2.926 3.383 3.383 0 0 0-3.382-.014l-37.901 21.644v7.74L68.709 98.42l3.89-2.222L86.4 88.316l-.115 12.942a3.352 3.352 0 0 0 1.579 2.872c.015.01.033.013.048.022a3.377 3.377 0 0 0 3.237.146l.653-.32 13.964-6.856 3.89-1.91 13.964-6.856 3.872-1.901 2.817-1.383 3.38 6.006a3.374 3.374 0 0 0 3.062 1.714 3.374 3.374 0 0 0 2.932-1.925l7.06-14.927a3.35 3.35 0 0 0-.087-3.028zm-10.286 9.194l-.005-.009.012-.006-.007.015z" fill="#DD1CFF" data-color="2"></path>
    </g>
</svg>