<svg preserveAspectRatio="xMidYMid meet" data-bbox="26.715 12.058 146.57 175.884" xmlns="http://www.w3.org/2000/svg" width="200" height="200" viewBox="26.715 12.058 146.57 175.884" data-type="color" role="presentation" aria-hidden="true">
    <g>
        <path fill="#FFFFFF" d="M100 12.058c-40.468 0-73.285 32.209-73.285 71.929 0 40.344 32.062 67.921 73.285 103.955 41.223-36.034 73.285-63.612 73.285-103.955 0-39.721-32.817-71.929-73.285-71.929zm0 131.913c-32.385 0-58.628-26.251-58.628-58.628S67.616 26.715 100 26.715c32.385 0 58.628 26.251 58.628 58.628 0 32.377-26.243 58.628-58.628 58.628z" data-color="1"></path>
        <path d="M88.672 68.848a9.195 9.195 0 1 1-18.39 0 9.195 9.195 0 0 1 18.39 0z" fill="#FFFFFF" data-color="1"></path>
        <path d="M130.471 68.848a9.195 9.195 0 1 1-18.39 0 9.195 9.195 0 0 1 18.39 0z" fill="#FFFFFF" data-color="1"></path>
        <path d="M109.573 76.033a9.195 9.195 0 1 1-18.39 0 9.195 9.195 0 0 1 18.39 0z" fill="#FFFFFF" data-color="1"></path>
        <path fill="#FFFFFF" d="M92.508 86.817a18.307 18.307 0 0 0-13.032-5.43c-8.967 0-16.425 6.42-18.052 14.913h20.137a21.708 21.708 0 0 1 10.947-9.483z" data-color="1"></path>
        <path fill="#FFFFFF" d="M121.273 81.387a18.306 18.306 0 0 0-13.031 5.43 21.702 21.702 0 0 1 10.946 9.483h20.137c-1.627-8.493-9.085-14.913-18.052-14.913z" data-color="1"></path>
        <path fill="#FFFFFF" d="M115.349 96.3c0-.001 0-.001 0 0-.153-.214-.321-.416-.482-.623-.146-.188-.286-.38-.44-.562-.197-.234-.408-.453-.616-.677-.129-.138-.252-.281-.385-.415-.245-.248-.504-.481-.763-.715-.104-.094-.204-.191-.31-.283-.294-.253-.6-.492-.91-.727-.077-.058-.151-.119-.228-.175a18.362 18.362 0 0 0-1.054-.713c-.049-.031-.096-.063-.145-.093a18.334 18.334 0 0 0-1.185-.671l-.074-.039a18.163 18.163 0 0 0-1.296-.603l-.022-.009a18.049 18.049 0 0 0-1.38-.511l-.002-.001c-1.791-.583-3.696-.913-5.682-.913s-3.891.331-5.682.913h-.001c-.47.153-.93.323-1.382.512l-.018.008c-.443.185-.876.386-1.3.604l-.069.036a18.48 18.48 0 0 0-1.19.673l-.139.089a18.53 18.53 0 0 0-1.059.716c-.076.056-.149.115-.225.172-.311.235-.618.475-.913.729-.106.091-.205.188-.309.281-.259.234-.518.468-.764.716-.133.134-.256.277-.385.415-.208.223-.419.443-.616.677-.154.183-.295.377-.442.566-.16.206-.327.406-.479.618v.001a18.319 18.319 0 0 0-3.078 7.185h36.104a18.336 18.336 0 0 0-3.079-7.181z" data-color="1"></path>
    </g>
</svg>