<svg preserveAspectRatio="xMidYMid meet" data-bbox="43.5 56 113 87.999" viewBox="43.5 56 113 87.999" height="200" width="200" xmlns="http://www.w3.org/2000/svg" data-type="color" role="presentation" aria-hidden="true">
    <g>
        <path d="M124.588 101.845a1.583 1.583 0 0 0-1.462-.972h-7.342V74.674c0-.598-.489-1.083-1.089-1.083H86.513c-.601 0-1.089.485-1.089 1.083v26.199h-7.342c-.64 0-1.217.384-1.462.972s-.111 1.265.343 1.716l22.522 22.393c.31.307.714.461 1.12.461s.81-.154 1.12-.461l22.522-22.393a1.571 1.571 0 0 0 .341-1.716z" fill="#DD1CFF" data-color="1"></path>
        <path d="M153.128 68.072H79.214l-.163-8.781C79.017 57.464 77.516 56 75.678 56H46.873c-1.863 0-3.373 1.501-3.373 3.353v81.293c0 1.852 1.51 3.353 3.373 3.353h106.255a3.362 3.362 0 0 0 3.372-3.353V71.425a3.363 3.363 0 0 0-3.372-3.353zm-80.76-5.365l.15 8.057H50.245v-8.057h22.123zm77.387 74.586h-99.51V74.787h29.706c.029 0 .056-.007.085-.009h69.719v62.515z" fill="#DD1CFF" data-color="2"></path>
    </g>
</svg>