<svg preserveAspectRatio="xMidYMid meet" data-bbox="25.502 49.499 148.998 101.005" viewBox="25.502 49.499 148.998 101.005" height="200" width="200" xmlns="http://www.w3.org/2000/svg" data-type="color" role="presentation" aria-hidden="true">
    <g>
        <path d="M150.812 98.779a2.692 2.692 0 0 0-3.758.626l-7.272 10.193-13.538-9.249a9.477 9.477 0 0 0-.258-.169c-1.316-.975-16.082-11.899-27.309-19.416.356-1.162-.013-2.489-1.048-3.157a2.695 2.695 0 0 0-3.909 1.111l-9.112 16.9c-.46.851-1.319 1.161-1.79 1.269-.931.212-1.988.05-2.901-.444l-.294-.16c-.916-.496-1.631-1.294-1.962-2.189-.168-.454-.381-1.344.078-2.195l8.819-16.345a.041.041 0 0 1 .023-.02l10.686-4.002a5.38 5.38 0 0 1 2.158-.335l18.195.92.006.001 12.122 2.163a2.7 2.7 0 0 0 3.156-2.417c.132-1.43-.988-2.68-2.4-2.932l-12.098-2.159-.345-.039-20.034-1.012a2.77 2.77 0 0 0-1.079.167l-13.15 4.924c-.51.191-.956.529-1.27.975-.177.251-.34.513-.488.788l-.264.489c-4.956-.321-12.9-1.405-12.986-1.417a2.689 2.689 0 0 0-3.035 2.308c-.202 1.478-4.617 2.25 2.303 3.041.307.035 6.038.821 10.916 1.261l-5.975 11.075c-1.073 1.988-1.215 4.407-.391 6.638.791 2.139 2.372 3.938 4.451 5.063l.293.159a9.716 9.716 0 0 0 4.623 1.19c.687 0 1.373-.076 2.046-.231 2.313-.531 4.255-1.975 5.328-3.963l6.807-12.616c11.522 7.743 26.555 18.898 26.716 19.018.07.051.141.1.216.144l15.837 10.814a2.937 2.937 0 0 1 1.232 1.897 2.943 2.943 0 0 1-.455 2.216l-.164.241a2.954 2.954 0 0 1-4.106.778l-15.707-10.73a2.686 2.686 0 0 0-3.743.71 2.7 2.7 0 0 0 .708 3.75l12.233 8.356c.141.156.296.303.477.427a2.937 2.937 0 0 1 1.232 1.897 2.943 2.943 0 0 1-.455 2.216l-.164.241c-.918 1.35-2.759 1.697-4.163.741l-13.66-8.828a2.689 2.689 0 0 0-3.724.805 2.702 2.702 0 0 0 .804 3.731l11.184 7.227c.153.18.322.35.527.489a2.937 2.937 0 0 1 1.232 1.897 2.943 2.943 0 0 1-.455 2.216l-.164.241a2.958 2.958 0 0 1-4.117.771l-11.008-7.436a2.69 2.69 0 0 0-3.74.729 2.703 2.703 0 0 0 .727 3.747l7.434 5.022c.165.208.352.402.583.56a2.937 2.937 0 0 1 1.232 1.897 2.943 2.943 0 0 1-.455 2.216l-.164.241c-.919 1.348-2.76 1.698-4.094.787l-9.857-6.808 2.053-2.921c2.324-3.307 1.53-7.892-1.771-10.222l-.624-.44a7.273 7.273 0 0 0-2.454-1.109c.622-3.053-.552-6.33-3.253-8.236l-.688-.486a7.988 7.988 0 0 0-5.154-1.449c-.01-.066-.013-.133-.025-.199a8.297 8.297 0 0 0-3.406-5.404l-.24-.17c-2.9-2.046-6.662-1.967-9.449-.098-.473-.68-1.047-1.305-1.761-1.809l-.624-.44a7.25 7.25 0 0 0-5.466-1.224 7.264 7.264 0 0 0-4.735 2.998l-1.251 1.78-5.385-7.97c-6.868-10.67-2.509-1.557-3.741-.722a2.702 2.702 0 0 0-.721 3.748l6.529 9.664-3.307 4.704a7.296 7.296 0 0 0-1.222 5.477 7.285 7.285 0 0 0 2.993 4.744l.625.441a7.235 7.235 0 0 0 3.437 1.277c.053 2.57 1.272 5.083 3.526 6.673l.236.167a8.254 8.254 0 0 0 4.778 1.521c.481 0 .967-.042 1.452-.126a8.49 8.49 0 0 0 1.292-.34 8.026 8.026 0 0 0 2.803 3.529l.688.486a7.985 7.985 0 0 0 4.619 1.47c.235 0 .471-.041.707-.061.389 1.703 1.356 3.28 2.89 4.363l.626.442a7.27 7.27 0 0 0 4.204 1.335 7.315 7.315 0 0 0 5.997-3.109l2.72-3.869 9.913 6.847a8.292 8.292 0 0 0 4.687 1.449 8.336 8.336 0 0 0 6.905-3.647l.164-.241a8.315 8.315 0 0 0 1.409-3.934c.342.043.686.075 1.028.075a8.336 8.336 0 0 0 6.905-3.647l.164-.241a8.329 8.329 0 0 0 1.446-4.637 8.333 8.333 0 0 0 6.81-3.641l.164-.241a8.294 8.294 0 0 0 1.402-3.837c.344.044.69.078 1.04.078.524 0 1.051-.049 1.577-.149a8.282 8.282 0 0 0 5.343-3.497l.164-.241a8.313 8.313 0 0 0 1.298-6.261 8.358 8.358 0 0 0-1.49-3.414l7.477-10.48a2.71 2.71 0 0 0-.627-3.77zm-90.018 24.84a1.912 1.912 0 0 1-1.193.732 1.914 1.914 0 0 1-1.443-.32l-.625-.441a1.922 1.922 0 0 1-.786-1.253 1.92 1.92 0 0 1 .319-1.445l7.876-11.204a1.92 1.92 0 0 1 1.25-.788 1.904 1.904 0 0 1 1.444.32l.624.44a1.935 1.935 0 0 1 .545 2.56l-8.011 11.399zm8.681 7.814a2.929 2.929 0 0 1-1.911 1.206 2.946 2.946 0 0 1-2.207-.491l-.236-.167a2.967 2.967 0 0 1-.715-4.125l.748-1.065c.032-.043.073-.076.103-.12l7.876-11.204c.03-.042.046-.09.074-.132l2.145-3.051a2.93 2.93 0 0 1 1.912-1.206c.174-.03.347-.045.52-.045.603 0 1.187.183 1.682.533l.241.17a2.967 2.967 0 0 1 .714 4.125l-10.946 15.572zm10.628 5.136a2.66 2.66 0 0 1-1.734 1.093 2.652 2.652 0 0 1-1.999-.443l-.689-.486a2.692 2.692 0 0 1-.648-3.741l9.527-13.554a2.678 2.678 0 0 1 3.732-.65l.689.486a2.692 2.692 0 0 1 .648 3.741v-.001l-9.526 13.555zm15.679-4.809l-7.876 11.204a1.933 1.933 0 0 1-2.693.469l-.625-.442a1.943 1.943 0 0 1-.468-2.699l7.876-11.204a1.923 1.923 0 0 1 1.251-.788 1.904 1.904 0 0 1 1.443.32l.624.44a1.944 1.944 0 0 1 .468 2.7z" fill="#FFFFFF" data-color="1"></path>
        <path d="M174.3 96.518l-31.78-46.522a1.138 1.138 0 0 0-1.585-.297l-16.671 11.433a1.144 1.144 0 0 0-.297 1.588l31.781 46.522a1.138 1.138 0 0 0 1.585.297l16.671-11.433a1.144 1.144 0 0 0 .296-1.588z" fill="#FFFFFF" data-color="2"></path>
        <path d="M72.839 61.978l-17.496-10.12a1.137 1.137 0 0 0-1.557.418l-28.133 48.823a1.147 1.147 0 0 0 .417 1.56l17.496 10.12a1.135 1.135 0 0 0 1.558-.417l28.133-48.823a1.147 1.147 0 0 0-.418-1.561z" fill="#FFFFFF" data-color="2"></path>   
        <path fill="#FFFFFF" d="M44.723 97.769a4.15 4.15 0 0 1-4.146 4.154 4.15 4.15 0 0 1-4.146-4.154 4.15 4.15 0 0 1 4.146-4.154 4.15 4.15 0 0 1 4.146 4.154z" data-color="1"></path>
        <path fill="#FFFFFF" d="M163.157 94.395a4.15 4.15 0 0 1-4.146 4.154 4.15 4.15 0 0 1-4.146-4.154 4.15 4.15 0 0 1 4.146-4.154 4.15 4.15 0 0 1 4.146 4.154z" data-color="1"></path>
    </g>
</svg>