<svg preserveAspectRatio="xMidYMid meet" data-bbox="43.5 62 112.999 76.001" viewBox="43.5 62 112.999 76.001" height="200" width="200" xmlns="http://www.w3.org/2000/svg" data-type="color" role="presentation" aria-hidden="true">
    <g>
        <path d="M137.983 101.74h-16.632a3.364 3.364 0 0 0-3.372 3.357v15.351a3.365 3.365 0 0 0 3.372 3.357h16.632a3.364 3.364 0 0 0 3.372-3.357v-15.351a3.363 3.363 0 0 0-3.372-3.357z" fill="#DD1CFF" data-color="1"></path>
        <path d="M60.397 106.257h23.205a2.018 2.018 0 0 0 2.023-2.014 2.018 2.018 0 0 0-2.023-2.014H60.397a2.018 2.018 0 0 0-2.023 2.014 2.017 2.017 0 0 0 2.023 2.014z" fill="#DD1CFF" data-color="2"></path>
        <path d="M83.602 110.758H60.397a2.018 2.018 0 0 0-2.023 2.014c0 1.113.906 2.014 2.023 2.014h23.205a2.018 2.018 0 0 0 2.023-2.014 2.018 2.018 0 0 0-2.023-2.014z" fill="#DD1CFF" data-color="2"></path>
        <path d="M83.602 119.286H60.397a2.018 2.018 0 0 0-2.023 2.014c0 1.112.906 2.014 2.023 2.014h23.205a2.018 2.018 0 0 0 2.023-2.014 2.018 2.018 0 0 0-2.023-2.014z" fill="#DD1CFF" data-color="2"></path>
        <path d="M153.128 62H46.872a3.364 3.364 0 0 0-3.372 3.357v69.287a3.365 3.365 0 0 0 3.372 3.357h106.255a3.364 3.364 0 0 0 3.372-3.357V65.357A3.363 3.363 0 0 0 153.128 62zm-14.886 6.713l-38.241 21.411-38.242-21.411h76.483zm-87.997 62.574V69.968L98.347 96.9a3.377 3.377 0 0 0 3.306 0l48.101-26.932v61.319H50.245z" fill="#DD1CFF" data-color="2"></path>
    </g>
</svg>