<svg preserveAspectRatio="xMidYMid meet" data-bbox="38.001 50 123.999 100" viewBox="38.001 50 123.999 100" height="200" width="200" xmlns="http://www.w3.org/2000/svg" data-type="color" role="presentation" aria-hidden="true">
    <g>
        <path d="M159.623 50H53.343a2.375 2.375 0 0 0-2.377 2.374v8.594h-9.582a3.381 3.381 0 0 0-3.383 3.379v69.948c0 .897.357 1.758.993 2.391a3.387 3.387 0 0 0 2.39.988h.006l21.078-.037v8.984A3.38 3.38 0 0 0 65.851 150c.623 0 1.247-.172 1.794-.514l18.91-11.812h61.109a3.381 3.381 0 0 0 3.383-3.379v-9.599h8.576a2.375 2.375 0 0 0 2.377-2.374V52.374A2.375 2.375 0 0 0 159.623 50zm-15.343 69.948v10.968H85.583c-.634 0-1.256.178-1.794.514l-14.556 9.092v-6.27c0-.897-.357-1.758-.993-2.391a3.387 3.387 0 0 0-2.39-.988h-.006l-21.078.037V67.726h99.514v52.222zm12.966 0h-6.199V64.347a3.381 3.381 0 0 0-3.383-3.379H55.72v-6.22h101.526v65.2z" fill="#DD1CFF" data-color="1"></path>
        <path d="M70.236 89.906c-4.947 0-8.972 4.02-8.972 8.96 0 4.94 4.025 8.96 8.972 8.96 4.947 0 8.972-4.02 8.972-8.96 0-4.94-4.025-8.96-8.972-8.96z" fill="#DD1CFF" data-color="2"></path>
        <path d="M94.523 89.906c-4.947 0-8.972 4.02-8.972 8.96 0 4.94 4.025 8.96 8.972 8.96s8.972-4.02 8.972-8.96c0-4.94-4.025-8.96-8.972-8.96z" fill="#DD1CFF" data-color="2"></path>
        <path d="M118.811 89.906c-4.947 0-8.972 4.02-8.972 8.96 0 4.94 4.025 8.96 8.972 8.96 4.947 0 8.972-4.02 8.972-8.96 0-4.94-4.025-8.96-8.972-8.96z" fill="#DD1CFF" data-color="2"></path>
    </g>
</svg>